<svg width="53" height="25" viewBox="0 0 53 25" fill="none" xmlns="http://www.w3.org/2000/svg">
<path fill-rule="evenodd" clip-rule="evenodd" d="M22.2479 10.0591C22.5474 9.79329 22.9803 9.5171 23.4669 9.28146C24.1907 8.93095 25.4872 8.48024 25.757 9.01469C26.0265 9.54897 24.8737 10.2847 24.1499 10.6352C23.6665 10.8694 22.9272 11.1482 22.4094 11.1482C22.152 11.1483 21.9493 11.0794 21.8599 10.902C21.7446 10.6736 21.8752 10.39 22.2479 10.0591ZM52.3999 9.98806C52.3043 9.68462 52.0939 9.43573 51.8071 9.28721C51.5206 9.13892 51.1922 9.10864 50.8823 9.20232C50.5725 9.29595 50.3183 9.50228 50.1667 9.78316C48.8677 12.192 47.2965 13.724 45.4978 14.3364L45.4812 14.3419C45.456 14.3504 45.4308 14.3588 45.4035 14.3677C45.0617 14.4796 44.7575 14.5605 44.496 14.609L44.4977 14.6065C45.9211 12.7292 48.2423 9.41654 48.3405 9.27641C48.7177 8.73779 48.5786 7.99718 48.0304 7.62553C47.482 7.25353 46.7255 7.38686 46.3442 7.92291C45.4528 9.17479 43.9767 11.23 42.5083 13.2424C42.2384 13.5976 42.0266 13.8657 41.8774 14.0411L41.8665 14.0546C40.9751 15.2144 39.6456 15.283 39.4372 15.1628L39.4146 15.1498C39.4056 15.1449 39.399 15.1399 39.3902 15.13L39.3754 15.1147C39.3324 15.0725 39.3079 15.017 39.3023 14.9497L39.3238 14.7782C39.3823 14.3102 39.73 13.6044 40.2311 12.9362C40.3339 12.7991 40.4711 12.6119 40.6297 12.3936C40.8776 12.0677 41.1058 11.7424 41.3294 11.4235C41.3582 11.3825 41.388 11.3402 41.4172 11.2986C42.1799 10.2318 42.9757 9.10515 42.9882 9.08756C43.1728 8.82645 43.2426 8.51044 43.1845 8.19785C43.1265 7.88521 42.9477 7.61353 42.6812 7.43285C42.4145 7.25194 42.092 7.18339 41.7731 7.24051C41.454 7.29729 41.1769 7.47232 40.9926 7.73321L40.9865 7.74183C40.9118 7.84762 39.3611 10.0406 38.5644 11.1345C38.4747 11.2486 38.3829 11.3609 38.2879 11.4716C37.7569 12.0893 37.2418 12.6305 36.7575 13.0795C36.1352 13.6519 35.6056 14.0663 35.1837 14.311C34.7684 14.5516 34.5316 14.5812 34.4285 14.5806C34.4411 14.4561 34.4711 14.3239 34.5181 14.1855C34.5983 13.9501 34.7469 13.6456 34.9596 13.2806C35.2007 12.8674 35.5257 12.355 35.9254 11.7575C36.3281 11.1554 36.8315 10.4087 37.4646 9.47509C38.0741 8.57584 38.7846 7.51625 39.637 6.23553C40.461 4.99696 41.4315 3.51134 42.5214 1.81978C42.8778 1.26647 42.7085 0.532087 42.1436 0.182887C41.5791 -0.166198 40.8295 -0.00030965 40.473 0.552823C39.3906 2.23284 38.4266 3.70876 37.6079 4.93944C36.7588 6.21513 36.0518 7.26924 35.4467 8.16198C35.1071 8.66301 34.805 9.10972 34.5354 9.50965C34.535 9.51034 34.5344 9.51091 34.5339 9.51165C34.3941 9.70593 34.2554 9.90364 34.133 10.0781C33.7889 10.569 33.4639 11.0327 33.087 11.4714C32.5557 12.0895 32.0406 12.6307 31.5567 13.0794C30.9343 13.6519 30.4047 14.0663 29.9827 14.3109C29.578 14.5455 29.341 14.5805 29.2358 14.5805H29.2277C29.2402 14.456 29.2702 14.3237 29.3173 14.1854C29.3973 13.9501 29.5459 13.6457 29.7588 13.2805C30.0002 12.8668 30.3251 12.3544 30.7245 11.7574C30.9638 11.3995 31.2427 10.9848 31.5669 10.5046C31.6981 10.3332 31.8265 10.161 31.9511 9.98795C32.0097 9.90678 32.0548 9.82041 32.0897 9.73163C32.1467 9.6476 32.2043 9.56238 32.2636 9.47498C32.8756 8.57236 33.5862 7.51271 34.4362 6.23541C35.2596 4.99776 36.2299 3.51208 37.3205 1.81966C37.4931 1.55164 37.549 1.2338 37.4777 0.924586C37.4064 0.615431 37.2165 0.351917 36.9428 0.182773C36.378 -0.166369 35.6287 -0.000252532 35.2721 0.552766C34.1899 2.23239 33.2259 3.7083 32.407 4.93927C31.5599 6.21216 30.8529 7.26633 30.2458 8.16192C29.9813 8.55219 29.7404 8.90825 29.5206 9.23397C28.8684 10.0699 28.1316 10.8826 27.3198 11.6566C25.401 13.4863 23.2909 14.5303 21.6705 14.4497C21.113 14.4215 20.8551 14.2599 20.8088 14.2058C20.7214 14.103 20.6845 13.9888 20.6508 13.8182C20.6595 13.6461 20.6928 13.4641 20.7498 13.2757C20.9591 13.2363 21.2291 13.1831 21.4955 13.1244C22.0499 13.0019 22.6283 12.8416 23.2146 12.648C23.8664 12.4329 24.4864 12.1837 25.0572 11.9075C25.6723 11.6102 26.2079 11.2698 26.6495 10.8957C27.4462 10.2198 27.6134 9.51531 27.6134 9.04323C27.6134 8.39584 27.3373 7.8366 26.8359 7.46838C26.4265 7.16791 25.9069 7.01556 25.2915 7.01556C24.4571 7.01556 23.5956 7.25222 22.7311 7.7191C21.9477 8.14204 21.2193 8.68084 20.5662 9.32051C20.3108 9.57083 20.0722 9.83217 19.8503 10.1028C19.8519 9.99383 19.8373 9.88404 19.8061 9.77625C19.7216 9.48497 19.5265 9.24345 19.2566 9.09601C18.9867 8.94852 18.6744 8.91299 18.377 8.99565C18.0798 9.07842 17.8333 9.26962 17.6828 9.53404C17.4053 10.0217 16.9981 10.2298 16.321 10.2298C16.1985 10.2298 16.0853 10.2124 15.9776 10.1768C15.9814 10.1541 15.9852 10.1309 15.9891 10.1075C16.0269 9.87496 16.0461 9.63527 16.0461 9.39506C16.0461 8.88328 15.9623 8.42669 15.7969 8.03808C15.5108 7.36516 14.8839 6.9634 14.1199 6.9634C13.0613 6.9634 12.322 7.70504 12.322 8.76692C12.322 8.9716 12.3515 9.19056 12.4096 9.41739C12.4772 9.68296 12.5982 9.94179 12.7693 10.1867C12.8306 10.2815 13.0298 10.5806 13.3199 10.9256C13.1619 11.2016 12.9687 11.4806 12.7444 11.757C12.3254 12.2733 11.8495 12.7489 11.33 13.1708C10.824 13.5821 10.2915 13.9182 9.74734 14.17C9.23306 14.4078 8.7393 14.5442 8.3928 14.5442C8.13592 14.5442 8.02223 14.4952 8.00328 14.4786C7.95169 14.4267 7.92545 14.3229 7.92545 14.1703C7.92545 13.9993 7.97705 13.8009 8.07879 13.5804C8.08922 13.558 8.09995 13.5353 8.11103 13.5122C8.12001 13.495 8.12852 13.4777 8.13651 13.4601C8.27929 13.1722 8.47518 12.8419 8.71895 12.4783C9.01326 12.0388 9.38249 11.5318 9.81643 10.9715C10.2656 10.3916 10.7754 9.73141 11.3463 8.99051C11.7307 8.4917 11.6291 7.77953 11.12 7.40291C10.6109 7.02647 9.88406 7.12598 9.49973 7.62467C8.93029 8.36374 8.42172 9.02238 7.97338 9.60105C7.50795 10.2021 7.10811 10.7515 6.78482 11.2341C6.50672 11.6489 6.27392 12.0397 6.09236 12.3962C5.84679 12.7051 5.59423 13.0019 5.34125 13.279C5.08402 13.5611 4.82306 13.8082 4.56536 14.0135C4.33711 14.1956 4.10932 14.3378 3.8883 14.4361C3.7247 14.5088 3.56647 14.5442 3.40462 14.5442C3.14774 14.5442 3.03405 14.4952 3.0151 14.4786C2.9635 14.4267 2.93727 14.3229 2.93727 14.1703C2.93727 13.9993 2.98887 13.8009 3.0906 13.5805C3.23642 13.2652 3.45179 12.8944 3.73065 12.4783C4.02502 12.0388 4.39436 11.5318 4.82837 10.9712C5.21386 10.4732 5.11416 9.76083 4.60594 9.38306C4.09772 9.00542 3.37057 9.10316 2.98513 9.60105C2.51976 10.2021 2.11981 10.7515 1.79652 11.2342C1.45184 11.7485 1.17811 12.2233 0.982853 12.6456C0.744396 13.162 0.623535 13.675 0.623535 14.1703C0.623535 15.1223 1.02285 15.7237 1.35774 16.0604C1.8529 16.5585 2.54163 16.8111 3.40462 16.8111C3.89629 16.8111 4.38072 16.7066 4.84463 16.5003C5.24651 16.3216 5.64384 16.0765 6.02561 15.7719C6.04152 15.7593 6.0575 15.7463 6.07353 15.7334C6.15475 15.8504 6.24587 15.9598 6.34586 16.0603C6.84108 16.5585 7.52975 16.8111 8.3928 16.8111C9.27218 16.8111 10.1519 16.4897 10.7351 16.2199C11.4547 15.887 12.1518 15.4483 12.8068 14.9159C13.449 14.3943 14.0371 13.8064 14.5551 13.1682C14.7851 12.8851 14.9935 12.5949 15.1762 12.3038C15.5399 12.4319 15.9241 12.4968 16.321 12.4968C17.3041 12.4968 18.14 12.2279 18.7955 11.7097C18.4476 12.4078 18.2601 13.0998 18.2377 13.772C18.2269 13.8386 18.2289 13.9376 18.25 14.0927L18.2508 14.0987C18.2574 14.1466 18.266 14.1951 18.2765 14.2426C18.3482 14.6196 18.4969 15.1817 18.9562 15.7209C19.5068 16.3672 20.4265 16.7543 21.5458 16.811C21.6436 16.816 21.7444 16.8186 21.845 16.8186C23.4016 16.8186 25.1373 16.2068 26.8274 15.0934C26.8982 15.5605 27.1004 15.9731 27.4237 16.3013C27.85 16.7343 28.4597 16.9538 29.2358 16.9538C29.8625 16.9538 30.5288 16.7519 31.2163 16.3535C31.5218 16.1763 31.8475 15.9524 32.1982 15.6785C32.3015 15.909 32.4442 16.1183 32.6245 16.3015C33.0509 16.7344 33.6606 16.9539 34.4367 16.9539C35.0634 16.9539 35.7297 16.752 36.4172 16.3535C36.6286 16.231 36.8495 16.0859 37.0816 15.9178C37.0863 15.9294 37.091 15.9413 37.0957 15.9522C37.4705 16.8284 38.1978 17.3877 39.1436 17.5268C39.1992 17.5351 39.2558 17.5418 39.3131 17.547C38.5097 18.5997 37.9756 19.261 37.7248 19.5133L37.505 19.7351C37.1921 20.0514 36.8684 20.3786 36.5339 20.6829L36.2069 20.9807C35.6497 21.4489 34.5381 22.2252 33.3566 22.157L33.3445 22.1565C32.6372 22.1413 32.1227 21.9845 31.8568 21.7032C31.6646 21.4998 31.6589 21.2903 31.6594 21.2544L31.6612 21.2394L31.6603 21.2123C31.6533 20.9778 31.6402 20.5413 32.7748 20.2942C33.0914 20.2252 33.3616 20.0397 33.5357 19.7718C33.7097 19.5037 33.7668 19.1853 33.6965 18.8753C33.6262 18.5651 33.4369 18.3004 33.1635 18.1298C32.89 17.9592 32.565 17.9031 32.2483 17.9722C31.2491 18.1898 30.4763 18.605 29.9511 19.2065C29.4201 19.8148 29.1756 20.5969 29.2439 21.4682C29.3327 22.5987 30.3204 24.512 33.4598 24.512C36.1602 24.512 37.8734 22.7801 39.25 21.3887L39.464 21.1727C39.9299 20.7043 41.0502 19.2749 42.7939 16.9245C43.6639 17.0439 44.5835 17.0057 45.4571 16.8135C48.8927 16.0579 51.0817 13.1775 52.3131 10.8944C52.4647 10.6136 52.4955 10.2917 52.3999 9.98806Z" fill="white"/>
</svg>
